<?xml version="1.0" encoding="UTF-8"?>
<svg id="Ebene_1" xmlns="http://www.w3.org/2000/svg" version="1.1" viewBox="0 0 4251.97 4251.97">
  <!-- Generator: Adobe Illustrator 29.8.9, SVG Export Plug-In . SVG Version: 2.1.1 Build 1)  -->
  <defs>
    <style>
      .st0 {
        fill: #fff;
      }

      .st1 {
        fill: #0871b8;
      }

      .st2 {
        display: none;
      }
    </style>
  </defs>
  <polygon class="st2" points="2449.98 1968.35 1828.98 1934.1 1828.98 1819.24 2449.98 1764.48 2449.98 1968.35"/>
  <rect class="st1" x="-111.18" y="-451.33" width="4488.7" height="5150.62"/>
  <g>
    <path class="st0" d="M3048.84,3252.74c-160.76-123.05-120.45-649.97,64.66-575.66,101.75,58.23,203.8,156.61,311.69,111.93,81.1-15.98,93.79-215.24,13.26-271.84-57.19-48.66-133.9-110.63-192.87-149.44-239.98-143.31-289.33-292.04-289.33-609.23,0-497.96,221.96-769.68,448.22-785.32,102.79-7.11,203.58-32.34,287.65,47.97,161.07,153.88,99.48,531.25-39.79,547.24-70.42,8.09-124.75-14.25-269.83-25.76-30.64-2.43-94.5,23.99-99.06,120.67-6.93,147,75.79,150.05,101.55,164.49,67.68,37.95,96.09,50.51,163.72,88.84,170.89,80.1,314.92,249.18,318.32,668.06,2.65,326.92-68.25,597.37-208.9,717.8-61.25,52.44-151.62,96.74-250.33,94.17-141.27-3.68-294.37-77.78-358.96-143.92Z"/>
    <path class="st0" d="M2402.15,2538.04l.1,510.37c3.73,244.17-227.68,293.58-222-20.85-2.76-486.01-2.69-1578.94-2.69-1578.94,0-83.67,48.08-192.78,99.31-205.56,126.26-31.51,217.81-36.35,358.69-41.41,278.72-10,346.72,925.37,108.51,1139.06-31.05,28.6-69.29,55.31-69.55,80.67-.28,27.71,68.62,160.53,87.04,199,47.23,98.62,58.03,135.13,102.79,238.97,120.61,279.84-87.95,591.45-199.78,342.02-86.78-209.79-246.77-666.28-246.77-666.28l-15.66,2.95ZM2414.64,2042.76c16.2-4.49,45.29-2.75,72.62-.47,125.08,10.42,134.55-60.43,132.13-198.35-2.07-118.15-10.9-147.79-87.46-147.47-59.75.25-62.59-1.78-120.35,2.67,0,0-3.99,345.58,3.05,343.62Z"/>
    <path class="st0" d="M1641.68,1523.08s5.11-145.29,85.38-167.01c77.53-20.99,169.94-37.79,261.34-37.79s100.09,53.78,100.09,243.89c0,214.1-83.73,198.11-159.37,197.22-23.21-.27-103.21,2.22-103.21,2.22,0,76.4-1.04,264.29-1.04,264.29,77.54,0,125.24,5.08,177.29,5.08,42.28,0,70.26,68.69,70.26,207.89,0,146.37-42.28,207.67-88.6,207.67-60.45,0-232.21,0-157.3,0,1.55,0,0,289.16,0,289.16,100.39,4.25,189.69,8.66,191.8,8.66,60.89,0,79.7,96.89,79.58,203.88-.13,116.33-29.84,200.55-86.11,199.22-118.17-2.8-184.65-2-282.57-2-38.55,0-81.49-72.69-92.01-177.9-13-129.94,3.27-1237.13,4.46-1444.49Z"/>
    <path class="st0" d="M771.93,2263.98c0-172.09-.09-371.61.14-543.69.03-20.43-.8-175.89,67.59-185.66,45.14-6.45,140.6-22.05,185.69-30.2,47.63-8.61,55.01,69.61,59.63,169.23,5.6,120.6-29.54,200.22-71.03,200.22-25.34,0-16.94-.33-40.41-.33-21.56,0-47.87,2.33-66.37,2.33l-2.49,228.2c54.25.67,104.85.35,126.21,1,11.04.33,46.16,29.33,46.16,185.23,0,126.59-31.4,161.91-63.42,161.91-23.94,0-63.73,0-111.72,0l-2.16,232.86c70.36-.67,109.84,1.67,128.8,1.67,32.44,0,62.68,59.2,61.03,197.33-1.27,106.4-17.22,150.94-68.55,147.41-40.95-.77-169.95.95-200.87.15-37.72-.98-48.08-127.13-48.08-139.57,0-134.14-.27-628.08-.17-628.08Z"/>
    <path class="st0" d="M1265.43,1842.22c-47.25,0-80.53-2.67-93.26-2.67-58.75,0-52.73-159.82-52.85-169.23-1.27-99.09-.73-174.79,69.63-199.88,61.09-21.79,108.85-19.22,152.63-29.32,68.24-15.74,124.26-25.75,188.07-32.65,53.09-5.74,59.32,91.56,62.17,181.23,3.52,110.35-11.81,201.22-51.29,207.88-48.36,8.16-30.15,11.99-110.67,23.99,0,0-3.42,856.64-3.42,1156.66,0,39.09-15.82,107.16-65.59,106.21-51.02-.97-92.95-15.59-92.95-106.21,0-163.24-3.11-393.09-3.11-556.34-.18,0,.62-579.66.62-579.66Z"/>
    <path class="st0" d="M391.6,1722.96c-.04-65.3,44.15-100.67,101.34-113.27,28.43-6.26,93.87-4.01,93.87-4.01,87.6,2.22,143.4,288.66,139.07,458.86-.62,24.43,16.49,495.27-167.04,495.27-23,0-56.58,2.21-56.58,4.44,0,66.57-1.45,257.18-4.03,338.33-1.72,53.98-20.3,72.99-53.17,72.99-40.83,0-53.51-4-53.51-78.62,0-35.23.14-1006.27.04-1173.98ZM489.02,2070.22c0,42.23-9.11,172.87,49.88,167.05,51.09-1.6,70.85-74.33,70.56-176.17,1.71-234.43-125.9-192.55-120.44,9.12Z"/>
  </g>
</svg>