<?xml version="1.0" encoding="UTF-8"?>
<svg id="Ebene_1" xmlns="http://www.w3.org/2000/svg" version="1.1" viewBox="0 0 4251.97 4251.97">
  <!-- Generator: Adobe Illustrator 29.8.9, SVG Export Plug-In . SVG Version: 2.1.1 Build 1)  -->
  <defs>
    <style>
      .st0 {
        fill: #fff;
      }

      .st1 {
        fill: #0871b8;
      }

      .st2 {
        display: none;
      }
    </style>
  </defs>
  <polygon class="st2" points="2449.98 1968.35 1828.98 1934.1 1828.98 1819.24 2449.98 1764.48 2449.98 1968.35"/>
  <rect class="st1" x="-111.18" y="-451.33" width="4488.7" height="5150.62"/>
  <g>
    <path class="st0" d="M2856.11,2611.71c-127.06-49.5-95.21-261.48,51.11-231.58,80.42,23.43,161.08,63,246.36,45.03,64.11-6.43,74.13-86.59,10.48-109.36-45.2-19.57-105.84-44.5-152.45-60.12-189.68-57.65-228.68-117.48-228.68-245.08,0-200.32,175.43-309.63,354.27-315.92,81.25-2.86,160.91-13.01,227.36,19.3,127.31,61.9,78.62,213.71-31.45,220.15-55.66,3.25-98.6-5.73-213.27-10.36-24.22-.98-74.69,9.65-78.3,48.55-5.48,59.13,59.91,60.36,80.26,66.17,53.5,15.27,75.95,20.32,129.4,35.74,135.07,32.22,248.91,100.24,251.6,268.75,2.1,131.52-53.95,240.32-165.11,288.76-48.41,21.1-119.84,38.92-197.86,37.88-111.66-1.48-232.67-31.29-283.72-57.9Z"/>
    <path class="st0" d="M2344.96,2324.2l.08,205.31c2.95,98.23-179.96,118.1-175.47-8.39-2.18-195.51-2.13-635.19-2.13-635.19,0-33.66,38-77.55,78.5-82.69,99.8-12.68,172.15-14.62,283.51-16.66,220.3-4.02,274.05,372.26,85.76,458.23-24.54,11.5-54.77,22.25-54.97,32.45-.22,11.15,54.24,64.58,68.8,80.05,37.33,39.68,45.87,54.36,81.25,96.14,95.33,112.57-69.52,237.93-157.91,137.59-68.59-84.4-195.04-268.04-195.04-268.04l-12.38,1.19ZM2354.84,2124.95c12.8-1.81,35.8-1.11,57.4-.19,98.87,4.19,106.35-24.31,104.44-79.79-1.64-47.53-8.61-59.45-69.12-59.33-47.22.1-49.47-.71-95.12,1.07,0,0-3.16,139.02,2.41,138.23Z"/>
    <path class="st0" d="M1743.89,1915.89s4.04-58.45,67.49-67.19c61.28-8.44,134.32-15.2,206.56-15.2s79.11,21.63,79.11,98.11c0,86.13-66.18,79.7-125.96,79.34-18.34-.11-81.57.89-81.57.89,0,30.73-.82,106.32-.82,106.32,61.29,0,98.99,2.04,140.13,2.04,33.42,0,55.53,27.63,55.53,83.63,0,58.88-33.42,83.54-70.03,83.54-47.78,0-183.54,0-124.33,0,1.23,0,0,116.33,0,116.33,79.35,1.71,149.93,3.48,151.6,3.48,48.12,0,62.99,38.98,62.9,82.02-.1,46.8-23.59,80.68-68.06,80.14-93.4-1.13-145.95-.8-223.34-.8-30.47,0-64.41-29.24-72.73-71.57-10.28-52.27,2.59-497.68,3.52-581.1Z"/>
    <path class="st0" d="M1056.45,2213.95c0-69.23-.07-149.49.11-218.72.02-8.22-.63-70.76,53.42-74.69,35.68-2.59,111.13-8.87,146.77-12.15,37.65-3.47,43.48,28,47.13,68.08,4.42,48.51-23.34,80.54-56.14,80.54-20.02,0-13.39-.13-31.94-.13-17.04,0-37.84.94-52.46.94l-1.97,91.8c42.88.27,82.87.14,99.76.4,8.72.13,36.49,11.8,36.49,74.51,0,50.93-24.82,65.13-50.12,65.13-18.92,0-50.37,0-88.3,0l-1.7,93.68c55.61-.27,86.82.67,101.8.67,25.64,0,49.54,23.82,48.24,79.38-1,42.8-13.61,60.72-54.18,59.3-32.36-.31-134.32.38-158.76.06-29.81-.39-38-51.14-38-56.15,0-53.96-.22-252.67-.13-252.67Z"/>
    <path class="st0" d="M1446.51,2044.28c-37.35,0-63.65-1.07-73.71-1.07-46.44,0-41.67-64.29-41.77-68.08-1-39.86-.57-70.31,55.04-80.41,48.28-8.77,86.03-7.73,120.64-11.79,53.93-6.33,98.21-10.36,148.65-13.13,41.96-2.31,46.88,36.84,49.14,72.91,2.78,44.39-9.34,80.95-40.54,83.63-38.22,3.28-23.83,4.82-87.47,9.65,0,0-2.7,344.62-2.7,465.31,0,15.72-12.51,43.11-51.84,42.73-40.33-.39-73.46-6.27-73.46-42.73,0-65.67-2.46-158.14-2.46-223.81-.14,0,.49-233.19.49-233.19Z"/>
    <path class="st0" d="M755.84,1996.3c-.03-26.27,34.9-40.5,80.1-45.57,22.47-2.52,74.19-1.62,74.19-1.62,69.24.89,113.35,116.12,109.92,184.59-.49,9.83,13.04,199.24-132.02,199.24-18.18,0-44.72.89-44.72,1.79,0,26.78-1.15,103.46-3.19,136.1-1.36,21.72-16.04,29.36-42.02,29.36-32.27,0-42.29-1.61-42.29-31.63,0-14.17.11-404.81.03-472.28ZM832.83,2136c0,16.99-7.2,69.54,39.42,67.2,40.38-.64,56-29.9,55.77-70.87,1.35-94.31-99.51-77.46-95.2,3.67Z"/>
  </g>
</svg>