<?xml version="1.0" encoding="utf-8"?>
<!-- Generator: Adobe Illustrator 19.2.0, SVG Export Plug-In . SVG Version: 6.00 Build 0)  -->
<svg version="1.1" id="Ebene_1" xmlns="http://www.w3.org/2000/svg" xmlns:xlink="http://www.w3.org/1999/xlink" x="0px" y="0px"
	 viewBox="0 0 129.9 129.7" style="enable-background:new 0 0 129.9 129.7;" xml:space="preserve">
<style type="text/css">
	.st0{fill:#FFFFFF;stroke:url(#SVGID_1_);stroke-width:2;stroke-miterlimit:10;}
	.st1{fill:#BD9E56;}
	.st2{fill:url(#SVGID_2_);stroke:url(#SVGID_3_);stroke-miterlimit:10;}
	.st3{fill:url(#SVGID_4_);stroke:url(#SVGID_5_);stroke-miterlimit:10;}
</style>
<linearGradient id="SVGID_1_" gradientUnits="userSpaceOnUse" x1="0" y1="64.8418" x2="129.8893" y2="64.8418">
	<stop  offset="0" style="stop-color:#E8C46C"/>
	<stop  offset="0.3342" style="stop-color:#B78B2F"/>
	<stop  offset="0.4817" style="stop-color:#DCC278"/>
	<stop  offset="0.5933" style="stop-color:#F5E6A8"/>
	<stop  offset="0.6485" style="stop-color:#FFF4BB"/>
	<stop  offset="0.6644" style="stop-color:#FEF1B6"/>
	<stop  offset="0.812" style="stop-color:#F2D98E"/>
	<stop  offset="0.9289" style="stop-color:#EBCA75"/>
	<stop  offset="1" style="stop-color:#E8C46C"/>
</linearGradient>
<ellipse class="st0" cx="64.9" cy="64.8" rx="63.9" ry="63.8"/>
<g>
	<path class="st1" d="M24.7,23.6l5.5-4.7l1,1.2l-4.1,3.5l1.8,2.1l3.6-3.1l1,1.1l-3.6,3.1l3,3.5l-1.4,1.2L24.7,23.6z"/>
	<path class="st1" d="M32.8,17.2l1.6-1l5.7,8.8l-1.6,1L32.8,17.2z"/>
	<path class="st1" d="M37.9,14.1l4.6-2c2.1-0.9,3.6-0.4,4.3,1.2c0.8,1.8-0.3,2.9-0.5,3.1l0,0c0.6-0.2,1.7-0.1,2.3,1.4
		c0.5,1.1,1.1,2.1,1.6,2.3l-1.8,0.8c-0.4-0.3-0.7-0.8-0.9-1.3c-0.8-1.8-1.5-2.4-3-1.7L42,19l1.7,4l-1.7,0.7L37.9,14.1z M41.5,17.7
		l2.8-1.2c1.1-0.5,1.4-1.2,1-2.3c-0.5-1.2-1.4-1.1-2.3-0.7l-2.7,1.2L41.5,17.7z"/>
	<path class="st1" d="M49.9,9.3l2.6-0.4l4.2,7.6l0,0l1.4-8.6l2.5-0.4l1.7,10.4l-1.7,0.3l-1.3-8l0,0l-1.5,8.5l-1.5,0.3L52,11.3l0,0
		l1.3,8l-1.7,0.3L49.9,9.3z"/>
	<path class="st1" d="M65.3,7.5l7.6,0.5l-0.1,1.6L67,9.2l-0.2,2.7l5.3,0.3L72,13.7l-5.3-0.3l-0.2,3.1l5.8,0.4l-0.1,1.6l-7.7-0.5
		L65.3,7.5z"/>
	<path class="st1" d="M76.7,8.6l1.9,0.5l2.5,8.7l0,0l2.1-7.4l1.7,0.5L82.1,21l-1.9-0.5l-2.5-8.7l0,0l-2.1,7.4l-1.7-0.5L76.7,8.6z"/>
	<path class="st1" d="M84.9,20.3l1.9,0.9L86,22.9l-1.9-0.9L84.9,20.3z"/>
	<path class="st1" d="M93,14.6l7.1,4.6l-0.9,1.3l-2.8-1.8l-4.8,7.5l-1.5-1l4.8-7.5l-2.8-1.8L93,14.6z"/>
	<path class="st1" d="M101.8,20.5l1.4,1.3l-3.8,7.8l0,0l7.7-4.1l1.4,1.3l-9.9,5.1l-1.5-1.4L101.8,20.5z"/>
</g>
<g>
	<path class="st1" d="M23.2,87.2l4,6.4l-1.4,0.8l-3-4.9l-2.3,1.4l2.8,4.5L22,96.4l-2.8-4.5l-2.6,1.6l3.1,5l-1.3,0.8l-4-6.5
		L23.2,87.2z"/>
	<path class="st1" d="M28.6,95.6l1.9,1.8l-3.6,7.9l0,0l7.7-4l1.8,1.8l-7.3,7.6l-1.3-1.2l5.6-5.8l0,0l-7.7,3.8l-1.1-1l3.5-7.9l0,0
		l-5.6,5.8l-1.3-1.2L28.6,95.6z"/>
	<path class="st1" d="M39,104.8l4.1,2.2c2.6,1.5,2.2,3.4,1.6,4.6c-0.6,1.1-2.1,2.6-4.7,1.1l-2.5-1.4l-1.9,3.5l-1.6-0.9L39,104.8z
		 M38.2,110l2.4,1.3c0.7,0.4,1.8,0.5,2.5-0.6c0.7-1.2,0.1-1.9-0.8-2.4l-2.4-1.3L38.2,110z"/>
	<path class="st1" d="M48.1,109.4l6.9,2.1l-0.5,1.5l-5.2-1.6l-0.8,2.6l4.6,1.4l-0.4,1.4l-4.6-1.4l-1.4,4.5l-1.8-0.5L48.1,109.4z"/>
	<path class="st1" d="M56.9,111.9l7.5,0.7l-0.2,1.6l-5.7-0.6l-0.3,2.7l5.3,0.5l-0.1,1.5l-5.3-0.5l-0.3,3.1l5.8,0.6l-0.2,1.6
		l-7.6-0.7L56.9,111.9z"/>
	<path class="st1" d="M66.7,112.6l1.8-0.2l0.5,4.1l4.7-0.6l-0.5-4.1l1.8-0.2l1.3,10.4l-1.8,0.2l-0.6-4.7l-4.8,0.6l0.6,4.7L68,123
		L66.7,112.6z"/>
	<path class="st1" d="M77.7,110.8l1.7-0.6l3,8.4l5-1.8l0.5,1.5l-6.8,2.4L77.7,110.8z"/>
	<path class="st1" d="M85.9,107.8l1.6-1l3.2,5.2c0.7,1.2,1.7,2.5,3.7,1.3c2-1.3,1.3-2.7,0.5-3.9l-3.2-5.2l1.6-1l3.5,5.7
		c1.4,2.3,0.6,4.3-1.6,5.7c-2.2,1.4-4.4,1.1-5.8-1.2L85.9,107.8z"/>
	<path class="st1" d="M95.4,101.5l1.4-1.4l8.9,2l0,0l-5.5-5.4l1.2-1.2l7.5,7.4l-1.4,1.4l-8.9-2l0,0l5.5,5.4l-1.2,1.2L95.4,101.5z"/>
	<path class="st1" d="M116.9,90.6l-0.6,1l-1.2-0.4c0.5,1.4,0.3,2.4-0.3,3.5c-1.6,2.7-4.7,3.1-7.3,1.6c-2.6-1.5-3.8-4.4-2.2-7.1
		c1.2-2,3.2-3,5.4-2.1l-0.9,1.5c-1.3-0.5-2.5,0.1-3.2,1.3c-1.1,1.9,0.1,3.8,1.8,4.8c1.7,1,3.9,1.2,5.1-0.7c1-1.6,0.5-3.1-1-4
		l-1.4,2.4l-1.2-0.7l2.3-3.9L116.9,90.6z"/>
</g>
<g>
	<linearGradient id="SVGID_2_" gradientUnits="userSpaceOnUse" x1="53.3184" y1="76.8025" x2="94.295" y2="35.8259">
		<stop  offset="0" style="stop-color:#E8C46C"/>
		<stop  offset="0.3639" style="stop-color:#B78B2F"/>
		<stop  offset="0.5649" style="stop-color:#DCC278"/>
		<stop  offset="0.7169" style="stop-color:#F5E6A8"/>
		<stop  offset="0.7921" style="stop-color:#FFF4BB"/>
		<stop  offset="0.8492" style="stop-color:#FEF2B8"/>
		<stop  offset="0.8927" style="stop-color:#FBECAE"/>
		<stop  offset="0.9318" style="stop-color:#F7E29E"/>
		<stop  offset="0.9681" style="stop-color:#F0D487"/>
		<stop  offset="1" style="stop-color:#E8C46C"/>
	</linearGradient>
	<linearGradient id="SVGID_3_" gradientUnits="userSpaceOnUse" x1="42.4922" y1="64.7451" x2="105.0284" y2="64.7451">
		<stop  offset="0" style="stop-color:#E8C46C"/>
		<stop  offset="0.2211" style="stop-color:#FFF9D7"/>
		<stop  offset="0.2252" style="stop-color:#FFFAD9"/>
		<stop  offset="0.4222" style="stop-color:#CCAC61"/>
		<stop  offset="0.5124" style="stop-color:#B78B2F"/>
		<stop  offset="0.6274" style="stop-color:#DCC278"/>
		<stop  offset="0.7144" style="stop-color:#F5E6A8"/>
		<stop  offset="0.7574" style="stop-color:#FFF4BB"/>
		<stop  offset="0.7684" style="stop-color:#FEF1B6"/>
		<stop  offset="0.8703" style="stop-color:#F2D98E"/>
		<stop  offset="0.951" style="stop-color:#EBCA75"/>
		<stop  offset="1" style="stop-color:#E8C46C"/>
	</linearGradient>
	<path class="st2" d="M66.3,87.1c-1.6,0-3.2-0.6-4.4-1.8l-17.1-17c-2.4-2.4-2.4-6.3,0-8.7c2.4-2.4,6.3-2.4,8.8,0l12.7,12.6L94,44.2
		c2.4-2.4,6.3-2.4,8.8,0c2.4,2.4,2.4,6.3,0,8.7L70.6,85.2C69.4,86.5,67.9,87.1,66.3,87.1z"/>
	<linearGradient id="SVGID_4_" gradientUnits="userSpaceOnUse" x1="65.4234" y1="105.8632" x2="65.4234" y2="24.7764">
		<stop  offset="0" style="stop-color:#E8C46C"/>
		<stop  offset="0.3342" style="stop-color:#B78B2F"/>
		<stop  offset="0.4817" style="stop-color:#DCC278"/>
		<stop  offset="0.5933" style="stop-color:#F5E6A8"/>
		<stop  offset="0.6485" style="stop-color:#FFF4BB"/>
		<stop  offset="0.6644" style="stop-color:#FEF1B6"/>
		<stop  offset="0.812" style="stop-color:#F2D98E"/>
		<stop  offset="0.9289" style="stop-color:#EBCA75"/>
		<stop  offset="1" style="stop-color:#E8C46C"/>
	</linearGradient>
	<linearGradient id="SVGID_5_" gradientUnits="userSpaceOnUse" x1="24.3134" y1="65.3198" x2="106.5335" y2="65.3198">
		<stop  offset="0" style="stop-color:#E8C46C"/>
		<stop  offset="0.2211" style="stop-color:#FFF9D7"/>
		<stop  offset="0.2252" style="stop-color:#FFFAD9"/>
		<stop  offset="0.4222" style="stop-color:#CCAC61"/>
		<stop  offset="0.5124" style="stop-color:#B78B2F"/>
		<stop  offset="0.6274" style="stop-color:#DCC278"/>
		<stop  offset="0.7144" style="stop-color:#F5E6A8"/>
		<stop  offset="0.7574" style="stop-color:#FFF4BB"/>
		<stop  offset="0.7684" style="stop-color:#FEF1B6"/>
		<stop  offset="0.8703" style="stop-color:#F2D98E"/>
		<stop  offset="0.951" style="stop-color:#EBCA75"/>
		<stop  offset="1" style="stop-color:#E8C46C"/>
	</linearGradient>
	<path class="st3" d="M104.8,55.4L93.6,66.6c-0.7,14.9-13.1,26.8-28.2,26.8c-15.6,0-28.2-12.6-28.2-28.2c0-15.5,12.7-28.2,28.2-28.2
		c8.2,0,16,3.6,21.4,9.8l8.8-8.8C87.9,29.7,77,24.8,65.4,24.8C43,24.8,24.8,43,24.8,65.3c0,22.4,18.2,40.5,40.6,40.5
		c22.4,0,40.6-18.2,40.6-40.5c0-2.3-0.2-4.6-0.6-6.9C105.3,57.4,105.1,56.4,104.8,55.4z"/>
</g>
</svg>
