<?xml version="1.0" encoding="utf-8"?>
<!-- Generator: Adobe Illustrator 19.2.0, SVG Export Plug-In . SVG Version: 6.00 Build 0)  -->
<svg version="1.1" id="Ebene_1" xmlns="http://www.w3.org/2000/svg" xmlns:xlink="http://www.w3.org/1999/xlink" x="0px" y="0px"
	 viewBox="0 0 38.8 38.6" style="enable-background:new 0 0 38.8 38.6;" xml:space="preserve">
<style type="text/css">
	.st0{fill:url(#SVGID_1_);stroke:url(#SVGID_2_);stroke-width:0.25;stroke-miterlimit:10;}
	.st1{fill:url(#SVGID_3_);stroke:url(#SVGID_4_);stroke-width:0.25;stroke-miterlimit:10;}
</style>
<g>
	<linearGradient id="SVGID_1_" gradientUnits="userSpaceOnUse" x1="13.656" y1="24.7392" x2="33.0895" y2="5.3058">
		<stop  offset="0" style="stop-color:#E8C46C"/>
		<stop  offset="0.3639" style="stop-color:#B78B2F"/>
		<stop  offset="0.5649" style="stop-color:#DCC278"/>
		<stop  offset="0.7169" style="stop-color:#F5E6A8"/>
		<stop  offset="0.7921" style="stop-color:#FFF4BB"/>
		<stop  offset="0.8492" style="stop-color:#FEF2B8"/>
		<stop  offset="0.8927" style="stop-color:#FBECAE"/>
		<stop  offset="0.9318" style="stop-color:#F7E29E"/>
		<stop  offset="0.9681" style="stop-color:#F0D487"/>
		<stop  offset="1" style="stop-color:#E8C46C"/>
	</linearGradient>
	<linearGradient id="SVGID_2_" gradientUnits="userSpaceOnUse" x1="8.6319" y1="19.025" x2="38.1012" y2="19.025">
		<stop  offset="0" style="stop-color:#E8C46C"/>
		<stop  offset="0.2211" style="stop-color:#FFF9D7"/>
		<stop  offset="0.2252" style="stop-color:#FFFAD9"/>
		<stop  offset="0.4222" style="stop-color:#CCAC61"/>
		<stop  offset="0.5124" style="stop-color:#B78B2F"/>
		<stop  offset="0.6274" style="stop-color:#DCC278"/>
		<stop  offset="0.7144" style="stop-color:#F5E6A8"/>
		<stop  offset="0.7574" style="stop-color:#FFF4BB"/>
		<stop  offset="0.7684" style="stop-color:#FEF1B6"/>
		<stop  offset="0.8703" style="stop-color:#F2D98E"/>
		<stop  offset="0.951" style="stop-color:#EBCA75"/>
		<stop  offset="1" style="stop-color:#E8C46C"/>
	</linearGradient>
	<path class="st0" d="M19.8,29.6c-0.7,0-1.5-0.3-2.1-0.8l-8.1-8c-1.2-1.1-1.2-3,0-4.1c1.1-1.1,3-1.2,4.2,0l6,6L33,9.3
		c1.1-1.1,3-1.1,4.2,0c1.1,1.1,1.1,3,0,4.1L21.9,28.7C21.3,29.3,20.6,29.6,19.8,29.6z"/>
	<linearGradient id="SVGID_3_" gradientUnits="userSpaceOnUse" x1="19.408" y1="38.4684" x2="19.408" y2="0.125">
		<stop  offset="0" style="stop-color:#E8C46C"/>
		<stop  offset="0.3342" style="stop-color:#B78B2F"/>
		<stop  offset="0.4817" style="stop-color:#DCC278"/>
		<stop  offset="0.5933" style="stop-color:#F5E6A8"/>
		<stop  offset="0.6485" style="stop-color:#FFF4BB"/>
		<stop  offset="0.6644" style="stop-color:#FEF1B6"/>
		<stop  offset="0.812" style="stop-color:#F2D98E"/>
		<stop  offset="0.9289" style="stop-color:#EBCA75"/>
		<stop  offset="1" style="stop-color:#E8C46C"/>
	</linearGradient>
	<linearGradient id="SVGID_4_" gradientUnits="userSpaceOnUse" x1="0" y1="19.2967" x2="38.8159" y2="19.2967">
		<stop  offset="0" style="stop-color:#E8C46C"/>
		<stop  offset="0.2211" style="stop-color:#FFF9D7"/>
		<stop  offset="0.2252" style="stop-color:#FFFAD9"/>
		<stop  offset="0.4222" style="stop-color:#CCAC61"/>
		<stop  offset="0.5124" style="stop-color:#B78B2F"/>
		<stop  offset="0.6274" style="stop-color:#DCC278"/>
		<stop  offset="0.7144" style="stop-color:#F5E6A8"/>
		<stop  offset="0.7574" style="stop-color:#FFF4BB"/>
		<stop  offset="0.7684" style="stop-color:#FEF1B6"/>
		<stop  offset="0.8703" style="stop-color:#F2D98E"/>
		<stop  offset="0.951" style="stop-color:#EBCA75"/>
		<stop  offset="1" style="stop-color:#E8C46C"/>
	</linearGradient>
	<path class="st1" d="M38.1,14.6l-5.3,5.3c-0.3,7.1-6.2,12.7-13.4,12.7C12,32.6,6,26.6,6,19.3C6,12,12,6,19.4,6
		c3.9,0,7.6,1.7,10.2,4.6l4.2-4.1c-3.7-4-8.8-6.3-14.3-6.3C8.8,0.1,0.1,8.7,0.1,19.3c0,10.6,8.7,19.2,19.3,19.2
		c10.6,0,19.3-8.6,19.3-19.2c0-1.1-0.1-2.2-0.3-3.3C38.3,15.6,38.2,15.1,38.1,14.6z"/>
</g>
</svg>
