<?xml version="1.0" encoding="utf-8"?>
<!-- Generator: Adobe Illustrator 19.2.0, SVG Export Plug-In . SVG Version: 6.00 Build 0)  -->
<svg version="1.1" id="Ebene_1" xmlns="http://www.w3.org/2000/svg" xmlns:xlink="http://www.w3.org/1999/xlink" x="0px" y="0px"
	 viewBox="0 0 29.9 28.6" style="enable-background:new 0 0 29.9 28.6;" xml:space="preserve">
<style type="text/css">
	.st0{fill:#EACD76;stroke:url(#SVGID_1_);stroke-miterlimit:10;}
	.st1{fill:#EACD76;stroke:#CEA642;stroke-width:0.5;stroke-miterlimit:10;}
</style>
<g>
	<linearGradient id="SVGID_1_" gradientUnits="userSpaceOnUse" x1="0.7777" y1="14.0875" x2="29.5591" y2="14.0875">
		<stop  offset="0" style="stop-color:#E8C46C"/>
		<stop  offset="0.2211" style="stop-color:#FFF9D7"/>
		<stop  offset="0.2252" style="stop-color:#FFFAD9"/>
		<stop  offset="0.4222" style="stop-color:#CCAC61"/>
		<stop  offset="0.5124" style="stop-color:#B78B2F"/>
		<stop  offset="0.6274" style="stop-color:#DCC278"/>
		<stop  offset="0.7144" style="stop-color:#F5E6A8"/>
		<stop  offset="0.7574" style="stop-color:#FFF4BB"/>
		<stop  offset="0.7684" style="stop-color:#FEF1B6"/>
		<stop  offset="0.8703" style="stop-color:#F2D98E"/>
		<stop  offset="0.951" style="stop-color:#EBCA75"/>
		<stop  offset="1" style="stop-color:#E8C46C"/>
	</linearGradient>
	<path class="st0" d="M1.8,10.9l8.8-1.6l4.5-8l4.4,8l9.2,1.8l-6.1,6.5c0,0,1.3,9.6,1.1,9.5c-0.3-0.1-8.5-3.8-8.5-3.8L6.4,27l1.7-9.3
		L1.8,10.9z"/>
	<path class="st1" d="M29.6,10.8c-0.1-0.3-0.3-0.5-0.6-0.5l-9.1-1.5l-4.2-8c-0.1-0.3-0.4-0.4-0.7-0.4c0,0,0,0-0.1,0c0,0,0,0-0.1,0
		c-0.3,0-0.5,0.2-0.7,0.4l-4.2,8l-9.1,1.5c-0.3,0-0.5,0.3-0.6,0.5c-0.1,0.3,0,0.6,0.2,0.8l6.3,6.3l-1.4,9.5c0,0.3,0.1,0.6,0.3,0.8
		c0.1,0.1,0.3,0.2,0.5,0.2c0.1,0,0.2,0,0.4-0.1l8.4-4.1l8.4,4.1c0.1,0.1,0.2,0.1,0.4,0.1c0.2,0,0.3-0.1,0.5-0.2
		c0.2-0.2,0.4-0.5,0.3-0.8l-1.4-9.5l6.3-6.3C29.6,11.4,29.7,11.1,29.6,10.8z M21.7,17.1c-0.2,0.2-0.3,0.4-0.2,0.7l1.2,8.4l-7.4-3.6
		c-0.1-0.1-0.3-0.1-0.4-0.1c-0.1,0-0.3,0-0.4,0.1l-7.4,3.6l1.2-8.4c0-0.3,0-0.5-0.2-0.7l-5.5-5.5l7.9-1.4c0.2,0,0.5-0.2,0.6-0.4
		l3.7-7l3.7,7c0.1,0.2,0.3,0.4,0.6,0.4l7.9,1.4L21.7,17.1z"/>
</g>
</svg>
